<mxfile host="app.diagrams.net" modified="2024-04-23T07:09:05.910Z" agent="Mozilla/5.0 (Windows NT 10.0; Win64; x64) AppleWebKit/537.36 (KHTML, like Gecko) Chrome/123.0.0.0 Safari/537.36" version="24.2.8" etag="lBN-t1U4AH5sAe6Wthfu" type="github">
  <diagram name="Page-1" id="nl1Ex1uxJ7zr9tlpeeo_">
    <mxGraphModel>
      <root>
        <mxCell id="0" />
        <mxCell id="1" parent="0" />
      </root>
    </mxGraphModel>
  </diagram>
</mxfile>
